<svg width="25" height="25" viewBox="0 0 25 25" fill="none" xmlns="http://www.w3.org/2000/svg">
<g clip-path="url(#clip0_967_21060)">
<path d="M12.5 1.14026V23.1403" stroke="#006BFF" stroke-width="2" stroke-linecap="round" stroke-linejoin="round"/>
<path d="M17.5 5.14026H10C9.07174 5.14026 8.1815 5.50901 7.52513 6.16539C6.86875 6.82176 6.5 7.712 6.5 8.64026C6.5 9.56852 6.86875 10.4588 7.52513 11.1151C8.1815 11.7715 9.07174 12.1403 10 12.1403H15C15.9283 12.1403 16.8185 12.509 17.4749 13.1654C18.1313 13.8218 18.5 14.712 18.5 15.6403C18.5 16.5685 18.1313 17.4588 17.4749 18.1151C16.8185 18.7715 15.9283 19.1403 15 19.1403H6.5" stroke="#006BFF" stroke-width="2" stroke-linecap="round" stroke-linejoin="round"/>
</g>
<defs>
<clipPath id="clip0_967_21060">
<rect width="24" height="24" fill="white" transform="translate(0.5 0.140259)"/>
</clipPath>
</defs>
</svg>
